HIERARCHY
ROOT newVegas:Hips
{
	OFFSET 0.000000 96.479958 0.000000
	CHANNELS 6 Xposition Yposition Zposition Xrotation Yrotation Zrotation
	JOINT newVegas:Pelvis
	{
		OFFSET 0.000000 0.000000 0.000000
		CHANNELS 3 Xrotation Yrotation Zrotation
		JOINT newVegas:LeftUpLeg
		{
			OFFSET 18.735201 -5.666702 -4.541200
			CHANNELS 3 Xrotation Yrotation Zrotation
			JOINT newVegas:LeftLeg
			{
				OFFSET -0.021200 -31.938179 0.493100
				CHANNELS 3 Xrotation Yrotation Zrotation
				JOINT newVegas:LeftFoot
				{
					OFFSET 0.021200 -31.938179 -4.336299
					CHANNELS 3 Xrotation Yrotation Zrotation
					JOINT newVegas:LeftToeBase
					{
						OFFSET 0.943001 -26.722000 15.023500
						CHANNELS 3 Xrotation Yrotation Zrotation
						End Site
						{
							OFFSET 0.000000 30.670183 0.000000
						}
					}
				}
				JOINT newVegas:Left_PantLeg
				{
					OFFSET 0.663870 -9.044666 -1.108900
					CHANNELS 3 Xrotation Yrotation Zrotation
					End Site
					{
						OFFSET 1.415995 20.635357 0.000000
					}
				}
			}
		}
		JOINT newVegas:RightUpLeg
		{
			OFFSET -18.735201 -5.666702 -4.541200
			CHANNELS 3 Xrotation Yrotation Zrotation
			JOINT newVegas:RightLeg
			{
				OFFSET 0.018946 -31.938133 0.493100
				CHANNELS 3 Xrotation Yrotation Zrotation
				JOINT newVegas:RightFoot
				{
					OFFSET -0.018946 -31.938126 -4.336299
					CHANNELS 3 Xrotation Yrotation Zrotation
					JOINT newVegas:RightToeBase
					{
						OFFSET -0.943001 -26.722004 15.023500
						CHANNELS 3 Xrotation Yrotation Zrotation
						End Site
						{
							OFFSET 0.000000 30.670187 0.000000
						}
					}
				}
				JOINT newVegas:Right_PantLeg
				{
					OFFSET -0.661674 -9.044716 -1.108900
					CHANNELS 3 Xrotation Yrotation Zrotation
					End Site
					{
						OFFSET -1.415958 20.635269 0.000000
					}
				}
			}
		}
	}
	JOINT newVegas:Spine
	{
		OFFSET 0.000000 10.199997 -0.299500
		CHANNELS 3 Xrotation Yrotation Zrotation
		JOINT newVegas:Spine1
		{
			OFFSET 0.000000 11.900002 -1.516600
			CHANNELS 3 Xrotation Yrotation Zrotation
			JOINT newVegas:Spine2
			{
				OFFSET 0.000000 13.600006 -2.842500
				CHANNELS 3 Xrotation Yrotation Zrotation
				JOINT newVegas:Neck
				{
					OFFSET 0.000000 9.624100 -2.890100
					CHANNELS 3 Xrotation Yrotation Zrotation
					JOINT newVegas:Head
					{
						OFFSET 0.000000 14.068802 -1.351900
						CHANNELS 3 Xrotation Yrotation Zrotation
						JOINT newVegas:Hair_Back
						{
							OFFSET 0.000000 3.231903 -17.524799
							CHANNELS 3 Xrotation Yrotation Zrotation
							End Site
							{
								OFFSET 0.000000 19.849884 0.000000
							}
						}
						JOINT newVegas:Hair_Front
						{
							OFFSET 0.000000 31.260406 4.573800
							CHANNELS 3 Xrotation Yrotation Zrotation
							JOINT newVegas:Hair_Front1
							{
								OFFSET 0.000000 2.284103 11.993300
								CHANNELS 3 Xrotation Yrotation Zrotation
								JOINT newVegas:Hair_Front2
								{
									OFFSET 0.000000 2.284103 11.993300
									CHANNELS 3 Xrotation Yrotation Zrotation
									End Site
									{
										OFFSET 0.000000 12.208862 0.000000
									}
								}
							}
						}
						JOINT newVegas:Jowel
						{
							OFFSET 0.000000 -7.458206 6.864100
							CHANNELS 3 Xrotation Yrotation Zrotation
							End Site
							{
								OFFSET 0.000000 19.849884 0.000000
							}
						}
					}
				}
				JOINT newVegas:LeftShoulder
				{
					OFFSET 15.263000 10.923401 -0.547700
					CHANNELS 3 Xrotation Yrotation Zrotation
					JOINT newVegas:LeftArm
					{
						OFFSET 25.438599 -2.830597 -13.032500
						CHANNELS 3 Xrotation Yrotation Zrotation
						JOINT newVegas:LeftForeArm
						{
							OFFSET 29.960503 0.000000 0.000000
							CHANNELS 3 Xrotation Yrotation Zrotation
							JOINT newVegas:LeftHand
							{
								OFFSET 27.849251 0.000000 0.000000
								CHANNELS 3 Xrotation Yrotation Zrotation
								JOINT newVegas:LeftHandThumb1
								{
									OFFSET 4.487587 -3.305161 6.305391
									CHANNELS 3 Xrotation Yrotation Zrotation
									JOINT newVegas:LeftHandThumb2
									{
										OFFSET 5.480453 -3.164139 3.164143
										CHANNELS 3 Xrotation Yrotation Zrotation
										JOINT newVegas:LeftHandThumb3
										{
											OFFSET 5.159721 -2.978973 2.978967
											CHANNELS 3 Xrotation Yrotation Zrotation
											End Site
											{
												OFFSET 2.494507 5.926697 1.738678
											}
										}
									}
								}
								JOINT newVegas:LeftHandIndex1
								{
									OFFSET 18.578728 -0.527832 5.208049
									CHANNELS 3 Xrotation Yrotation Zrotation
									JOINT newVegas:LeftHandIndex2
									{
										OFFSET 3.192009 0.000000 0.000000
										CHANNELS 3 Xrotation Yrotation Zrotation
										JOINT newVegas:LeftHandIndex3
										{
											OFFSET 3.835129 0.000000 0.000000
											CHANNELS 3 Xrotation Yrotation Zrotation
											End Site
											{
												OFFSET -0.034599 3.816971 0.371180
											}
										}
									}
								}
								JOINT newVegas:LeftHandMiddle1
								{
									OFFSET 18.476105 0.000000 0.000000
									CHANNELS 3 Xrotation Yrotation Zrotation
									JOINT newVegas:LeftHandMiddle2
									{
										OFFSET 3.324875 0.000000 0.000000
										CHANNELS 3 Xrotation Yrotation Zrotation
										JOINT newVegas:LeftHandMiddle3
										{
											OFFSET 4.596550 0.000000 0.000000
											CHANNELS 3 Xrotation Yrotation Zrotation
											End Site
											{
												OFFSET 0.057701 4.578827 0.399218
											}
										}
									}
								}
								JOINT newVegas:LeftHandRing1
								{
									OFFSET 17.732719 0.121887 -4.201567
									CHANNELS 3 Xrotation Yrotation Zrotation
									JOINT newVegas:LeftHandRing2
									{
										OFFSET 2.733170 0.000000 0.000000
										CHANNELS 3 Xrotation Yrotation Zrotation
										JOINT newVegas:LeftHandRing3
										{
											OFFSET 3.178268 0.000000 0.000000
											CHANNELS 3 Xrotation Yrotation Zrotation
											End Site
											{
												OFFSET 0.119102 3.170624 0.185394
											}
										}
									}
								}
								JOINT newVegas:LeftHandPinky1
								{
									OFFSET 15.989624 -0.606689 -7.535461
									CHANNELS 3 Xrotation Yrotation Zrotation
									JOINT newVegas:LeftHandPinky2
									{
										OFFSET 2.538986 0.000000 0.000000
										CHANNELS 3 Xrotation Yrotation Zrotation
										JOINT newVegas:LeftHandPinky3
										{
											OFFSET 2.593102 0.000000 0.000000
											CHANNELS 3 Xrotation Yrotation Zrotation
											End Site
											{
												OFFSET -0.150902 2.584198 0.152708
											}
										}
									}
								}
							}
							JOINT newVegas:Left_Sleeve
							{
								OFFSET 0.267448 -0.649796 0.577675
								CHANNELS 3 Xrotation Yrotation Zrotation
								End Site
								{
									OFFSET 0.000000 15.991241 0.000000
								}
							}
							JOINT newVegas:Left_CapeC
							{
								OFFSET 15.715958 -8.608795 -6.935905
								CHANNELS 3 Xrotation Yrotation Zrotation
								JOINT newVegas:Left_CapeC1
								{
									OFFSET 0.000000 -8.688499 0.000000
									CHANNELS 3 Xrotation Yrotation Zrotation
									End Site
									{
										OFFSET 0.000000 8.688499 0.000000
									}
								}
							}
						}
						JOINT newVegas:Left_CapeB
						{
							OFFSET 26.118385 -8.608795 -7.079235
							CHANNELS 3 Xrotation Yrotation Zrotation
							JOINT newVegas:Left_CapeB1
							{
								OFFSET 0.000000 -8.688499 0.000000
								CHANNELS 3 Xrotation Yrotation Zrotation
								End Site
								{
									OFFSET 0.000000 8.688499 0.000000
								}
							}
						}
						JOINT newVegas:Left_CapeA
						{
							OFFSET 5.115639 -8.608795 -10.395809
							CHANNELS 3 Xrotation Yrotation Zrotation
							JOINT newVegas:Left_CapeA1
							{
								OFFSET 0.000000 -8.688499 0.000000
								CHANNELS 3 Xrotation Yrotation Zrotation
								End Site
								{
									OFFSET 0.000000 8.688499 0.000000
								}
							}
						}
					}
				}
				JOINT newVegas:RightShoulder
				{
					OFFSET -15.263000 10.923401 -0.547700
					CHANNELS 3 Xrotation Yrotation Zrotation
					JOINT newVegas:RightArm
					{
						OFFSET -25.438599 -2.830597 -13.032500
						CHANNELS 3 Xrotation Yrotation Zrotation
						JOINT newVegas:RightForeArm
						{
							OFFSET -29.960503 0.000000 0.000000
							CHANNELS 3 Xrotation Yrotation Zrotation
							JOINT newVegas:RightHand
							{
								OFFSET -27.849251 0.000000 0.000000
								CHANNELS 3 Xrotation Yrotation Zrotation
								JOINT newVegas:RightHandThumb1
								{
									OFFSET -4.487587 -3.305161 6.305391
									CHANNELS 3 Xrotation Yrotation Zrotation
									JOINT newVegas:RightHandThumb2
									{
										OFFSET -5.480453 -3.164139 3.164143
										CHANNELS 3 Xrotation Yrotation Zrotation
										JOINT newVegas:RightHandThumb3
										{
											OFFSET -5.159721 -2.978973 2.978967
											CHANNELS 3 Xrotation Yrotation Zrotation
											End Site
											{
												OFFSET -2.494507 5.926697 1.738678
											}
										}
									}
								}
								JOINT newVegas:RightHandIndex1
								{
									OFFSET -18.578728 -0.527832 5.208049
									CHANNELS 3 Xrotation Yrotation Zrotation
									JOINT newVegas:RightHandIndex2
									{
										OFFSET -3.192009 0.000000 0.000000
										CHANNELS 3 Xrotation Yrotation Zrotation
										JOINT newVegas:RightHandIndex3
										{
											OFFSET -3.835129 0.000000 0.000000
											CHANNELS 3 Xrotation Yrotation Zrotation
											End Site
											{
												OFFSET 0.034599 3.816971 0.371180
											}
										}
									}
								}
								JOINT newVegas:RightHandMiddle1
								{
									OFFSET -18.476105 0.000000 0.000000
									CHANNELS 3 Xrotation Yrotation Zrotation
									JOINT newVegas:RightHandMiddle2
									{
										OFFSET -3.324875 0.000000 0.000000
										CHANNELS 3 Xrotation Yrotation Zrotation
										JOINT newVegas:RightHandMiddle3
										{
											OFFSET -4.596550 0.000000 0.000000
											CHANNELS 3 Xrotation Yrotation Zrotation
											End Site
											{
												OFFSET -0.057701 4.578827 0.399218
											}
										}
									}
								}
								JOINT newVegas:RightHandRing1
								{
									OFFSET -17.732719 0.121887 -4.201567
									CHANNELS 3 Xrotation Yrotation Zrotation
									JOINT newVegas:RightHandRing2
									{
										OFFSET -2.733170 0.000000 0.000000
										CHANNELS 3 Xrotation Yrotation Zrotation
										JOINT newVegas:RightHandRing3
										{
											OFFSET -3.178268 0.000000 0.000000
											CHANNELS 3 Xrotation Yrotation Zrotation
											End Site
											{
												OFFSET -0.119102 3.170624 0.185394
											}
										}
									}
								}
								JOINT newVegas:RightHandPinky1
								{
									OFFSET -15.989624 -0.606689 -7.535461
									CHANNELS 3 Xrotation Yrotation Zrotation
									JOINT newVegas:RightHandPinky2
									{
										OFFSET -2.538986 0.000000 0.000000
										CHANNELS 3 Xrotation Yrotation Zrotation
										JOINT newVegas:RightHandPinky3
										{
											OFFSET -2.593102 0.000000 0.000000
											CHANNELS 3 Xrotation Yrotation Zrotation
											End Site
											{
												OFFSET 0.150902 2.584198 0.152708
											}
										}
									}
								}
							}
							JOINT newVegas:Right_CapeC
							{
								OFFSET -15.715958 -8.608795 -6.935905
								CHANNELS 3 Xrotation Yrotation Zrotation
								JOINT newVegas:Right_CapeC1
								{
									OFFSET 0.000000 -8.688499 0.000000
									CHANNELS 3 Xrotation Yrotation Zrotation
									End Site
									{
										OFFSET 0.000000 8.688499 0.000000
									}
								}
							}
							JOINT newVegas:Right_Sleeve
							{
								OFFSET -0.267448 -0.649994 0.577675
								CHANNELS 3 Xrotation Yrotation Zrotation
								End Site
								{
									OFFSET 0.000000 15.991302 0.000000
								}
							}
						}
						JOINT newVegas:Right_CapeA
						{
							OFFSET -5.115540 -8.608795 -10.395824
							CHANNELS 3 Xrotation Yrotation Zrotation
							JOINT newVegas:Right_CapeA1
							{
								OFFSET 0.000000 -8.688499 0.000000
								CHANNELS 3 Xrotation Yrotation Zrotation
								End Site
								{
									OFFSET 0.000000 8.688499 0.000000
								}
							}
						}
						JOINT newVegas:Right_CapeB
						{
							OFFSET -26.118187 -8.608795 -7.079266
							CHANNELS 3 Xrotation Yrotation Zrotation
							JOINT newVegas:Right_CapeB1
							{
								OFFSET 0.000000 -8.688499 0.000000
								CHANNELS 3 Xrotation Yrotation Zrotation
								End Site
								{
									OFFSET 0.000000 8.688499 0.000000
								}
							}
						}
					}
				}
				JOINT newVegas:Left_Collar
				{
					OFFSET 18.625099 8.655502 8.828100
					CHANNELS 3 Xrotation Yrotation Zrotation
					JOINT newVegas:Left_Collar1
					{
						OFFSET 14.783401 10.540405 -1.259500
						CHANNELS 3 Xrotation Yrotation Zrotation
						End Site
						{
							OFFSET 0.000000 18.199875 0.000000
						}
					}
				}
				JOINT newVegas:Collar_Back
				{
					OFFSET 0.000000 15.630707 -20.132601
					CHANNELS 3 Xrotation Yrotation Zrotation
					End Site
					{
						OFFSET 0.000000 22.523010 0.000000
					}
				}
				JOINT newVegas:Left_Peck
				{
					OFFSET 17.239599 -5.132599 25.482599
					CHANNELS 3 Xrotation Yrotation Zrotation
					End Site
					{
						OFFSET 0.000000 22.523010 0.000000
					}
				}
				JOINT newVegas:Right_Peck
				{
					OFFSET -17.239599 -5.132202 25.482599
					CHANNELS 3 Xrotation Yrotation Zrotation
					End Site
					{
						OFFSET 0.000000 22.523010 0.000000
					}
				}
				JOINT newVegas:Right_Collar
				{
					OFFSET -18.625099 8.655792 8.828100
					CHANNELS 3 Xrotation Yrotation Zrotation
					JOINT newVegas:Right_Collar1
					{
						OFFSET -14.783401 10.539993 -1.259500
						CHANNELS 3 Xrotation Yrotation Zrotation
						End Site
						{
							OFFSET 0.000000 18.199631 0.000000
						}
					}
				}
			}
		}
		JOINT newVegas:Belly
		{
			OFFSET 0.000000 -6.540398 9.014299
			CHANNELS 3 Xrotation Yrotation Zrotation
			End Site
			{
				OFFSET 0.000000 11.566666 0.000000
			}
		}
	}
	JOINT newVegas:ElvisFacialAnim_Joint
	{
		OFFSET 1.000000 -95.330101 -8.825800
		CHANNELS 3 Xrotation Yrotation Zrotation
		End Site
		{
			OFFSET 0.000000 35.315800 0.000000
		}
	}
}
MOTION
Frames: 4
Frame Time: 0.033333
-1.521701 93.262527 4.565969 9.352259 -19.242827 0.124937 0.000000 0.000003 -0.000000 -51.465749 7.498912 5.206738 68.236288 2.805181 0.100280 -1.326660 -0.146173 2.465805 -0.000000 0.000001 -0.000001 0.000002 0.000000 -0.000000 -18.635994 -1.902512 4.057613 17.843564 0.711283 -0.047494 -7.918137 1.018826 -1.427719 0.000000 -0.000000 -0.000000 0.000001 -0.000002 -0.000001 2.773872 1.802850 1.831233 2.722508 -4.399249 0.711483 3.360620 -8.808126 4.639113 4.942503 2.712374 -1.664141 4.942496 2.712386 -1.664144 0.000002 -0.000001 0.000000 4.942496 2.712377 -1.664140 4.942602 2.712390 -1.664148 -0.000003 0.000000 0.000000 0.000002 -0.000001 0.000000 3.544253 4.756001 -11.623015 -54.038831 -33.116435 -50.381569 -0.000213 -81.882357 -0.000206 -58.768389 25.992591 38.870333 -14.557471 10.837985 12.229969 0.749545 -4.257840 13.305490 0.000002 0.000001 -0.000003 -0.809545 2.578182 -31.496434 3.095900 5.163768 -61.866966 0.000000 -0.000000 0.000001 -2.430860 1.729232 -41.460935 2.952348 5.084723 -60.259938 0.000000 0.000001 -0.000002 -6.054135 -0.166582 -49.857581 3.046277 5.137013 -61.313966 0.000000 -0.000001 0.000000 -8.298315 -6.522640 -38.520163 2.848771 5.024352 -59.084415 0.000000 -0.000003 -0.000000 0.000002 0.000001 0.000003 0.000002 0.000001 0.000003 0.000001 0.000001 0.000003 0.000002 -0.000001 -0.000001 0.000002 -0.000002 -0.000000 0.000002 -0.000001 -0.000001 0.000000 -0.000002 -0.000001 -14.733691 2.115961 -4.463088 72.337543 138.834045 -52.653495 -0.000001 29.080698 -0.000001 -49.752443 -7.371267 -31.498739 8.377138 -4.904126 11.022008 21.620190 -18.183917 -18.379197 0.000002 -0.000003 -0.000003 0.558925 -4.406592 25.436659 1.653051 -3.560331 49.799094 0.000000 -0.000000 -0.000001 10.969819 -12.875557 52.800835 6.387561 -4.324410 111.833652 0.000001 -0.000000 0.000002 3.705087 -7.151319 57.622454 5.328217 -4.608652 98.293423 -0.000001 -0.000001 0.000001 0.474833 -5.173020 58.987699 3.194304 -4.421903 71.674168 0.000001 -0.000000 -0.000002 -0.000001 0.000000 -0.000000 -0.000001 0.000001 0.000002 -0.000001 -0.000000 -0.000000 -0.000002 0.000000 -0.000000 -0.000002 0.000000 0.000000 -0.000002 0.000000 -0.000000 -0.000002 -0.000000 0.000000 -0.000000 -0.000000 0.000001 -0.000000 -0.000000 0.000001 -0.000000 -0.000000 0.000001 -0.000000 -0.000000 0.000001 -0.000000 -0.000000 0.000001 -0.000000 -0.000000 0.000001 -0.000000 -0.000000 0.000001 0.000000 0.000001 -0.000000 0.000000 0.000003 -0.000000 
-1.353390 93.638596 12.279194 10.758922 -20.002918 0.747045 -0.000000 -0.000000 0.000000 -55.433047 6.115787 7.909485 56.455448 4.232791 0.114933 -4.202359 0.096857 0.248393 -0.000000 -0.000000 0.000000 0.000000 0.000000 0.000001 -11.110721 -3.757711 1.643688 11.881597 3.948007 0.704543 -9.783928 0.965442 -1.431282 0.000000 -0.000001 0.000000 -0.000000 0.000003 -0.000001 2.279856 2.364438 1.688119 2.296267 -4.056170 0.576913 2.921867 -8.463201 4.500608 4.913002 2.676465 -1.736895 4.913004 2.676463 -1.736893 0.000000 0.000002 -0.000001 4.913004 2.676468 -1.736894 4.913077 2.676474 -1.736898 -0.000002 -0.000000 0.000000 0.000000 0.000002 -0.000001 3.511152 4.998040 -11.559246 -54.528296 -33.469809 -50.824233 0.000228 -81.721137 0.000210 -59.210773 25.816148 39.219776 -14.557472 10.837983 12.229973 0.749545 -4.257842 13.305484 0.000004 -0.000001 0.000000 -0.809545 2.578182 -31.496430 3.095900 5.163765 -61.866959 0.000001 -0.000001 -0.000001 -2.430862 1.729231 -41.460932 2.952346 5.084724 -60.259931 -0.000001 -0.000001 -0.000005 -6.054135 -0.166581 -49.857584 3.046278 5.137017 -61.313966 -0.000000 -0.000001 -0.000001 -8.298310 -6.522639 -38.520156 2.848775 5.024355 -59.084415 -0.000001 -0.000002 0.000001 -0.000001 0.000002 0.000002 -0.000001 0.000002 0.000002 -0.000002 0.000002 0.000002 -0.000002 -0.000001 0.000001 -0.000002 -0.000002 0.000001 -0.000002 -0.000001 0.000001 -0.000003 -0.000002 0.000001 -14.772603 2.198897 -4.768582 72.255970 138.562149 -53.126704 -0.000002 29.629893 0.000001 -50.075853 -7.846911 -31.655058 8.377136 -4.904124 11.022012 21.620194 -18.183917 -18.379201 -0.000001 -0.000002 -0.000001 0.558924 -4.406592 25.436663 1.653051 -3.560329 49.799100 0.000000 0.000000 -0.000002 10.969819 -12.875558 52.800832 6.387560 -4.324408 111.833658 0.000002 0.000000 0.000001 3.705089 -7.151319 57.622454 5.328216 -4.608652 98.293423 0.000001 -0.000001 0.000005 0.474829 -5.173025 58.987693 3.194303 -4.421904 71.674168 0.000001 -0.000000 0.000000 -0.000002 0.000000 0.000002 -0.000002 0.000001 0.000001 -0.000002 0.000000 0.000002 -0.000000 0.000002 -0.000001 -0.000000 0.000002 -0.000000 -0.000000 0.000002 -0.000001 -0.000000 0.000002 -0.000000 -0.000001 0.000000 -0.000000 -0.000001 0.000000 -0.000000 -0.000001 0.000000 -0.000000 -0.000001 0.000000 -0.000000 -0.000001 0.000000 -0.000000 -0.000001 0.000000 -0.000000 -0.000001 0.000000 -0.000000 -0.000000 -0.000000 0.000000 -0.000000 -0.000000 0.000000 
-1.331622 93.552788 19.997662 11.810508 -21.524376 2.040663 -0.000000 0.000001 -0.000000 -55.067656 5.205903 10.025096 40.430461 7.545458 0.174907 -8.272153 0.278736 -0.666673 -0.000001 -0.000000 -0.000000 0.000000 -0.000000 -0.000000 -6.069453 -6.196385 -1.645803 9.474493 7.844926 1.621774 -11.507593 0.887541 -1.714441 0.000000 -0.000000 0.000000 -0.000000 0.000001 -0.000001 1.887314 3.320498 0.451612 1.939833 -3.486825 0.349794 2.540924 -7.899446 4.267227 4.777490 2.635081 -1.764694 4.777509 2.635072 -1.764692 -0.000000 0.000003 -0.000001 4.777521 2.635068 -1.764693 4.777435 2.635105 -1.764695 -0.000000 -0.000001 0.000001 -0.000000 0.000003 -0.000001 3.123299 5.479074 -10.511873 -55.322869 -32.962821 -51.735562 0.000030 -82.057476 0.000009 -58.386875 25.267581 39.449790 -14.557469 10.837983 12.229975 0.749548 -4.257841 13.305489 0.000000 -0.000001 -0.000004 -0.809545 2.578181 -31.496434 3.095900 5.163769 -61.866972 -0.000000 -0.000001 -0.000001 -2.430860 1.729231 -41.460935 2.952345 5.084726 -60.259938 -0.000000 0.000000 -0.000002 -6.054133 -0.166582 -49.857581 3.046281 5.137016 -61.313966 0.000000 -0.000002 -0.000000 -8.298312 -6.522636 -38.520163 2.848774 5.024351 -59.084422 -0.000000 -0.000005 -0.000001 -0.000001 -0.000001 -0.000007 -0.000001 -0.000001 -0.000007 -0.000002 -0.000001 -0.000007 0.000001 -0.000001 -0.000000 0.000001 -0.000002 0.000000 0.000001 -0.000001 -0.000000 -0.000001 -0.000002 -0.000001 -14.758753 2.584442 -5.122297 72.993296 139.462969 -54.255334 -0.000020 30.479238 0.000018 -48.921793 -7.365264 -31.254529 8.377137 -4.904124 11.022009 21.620194 -18.183917 -18.379199 0.000003 -0.000001 0.000001 0.558925 -4.406593 25.436659 1.653050 -3.560331 49.799100 0.000000 -0.000001 -0.000003 10.969818 -12.875555 52.800832 6.387560 -4.324409 111.833652 0.000002 0.000001 0.000000 3.705089 -7.151318 57.622454 5.328217 -4.608650 98.293423 0.000001 0.000002 0.000003 0.474829 -5.173025 58.987693 3.194305 -4.421900 71.674168 0.000001 0.000001 0.000002 0.000000 -0.000002 -0.000001 -0.000000 -0.000002 -0.000000 0.000000 -0.000002 -0.000001 -0.000001 0.000001 -0.000001 -0.000001 0.000001 -0.000001 -0.000001 0.000001 -0.000001 -0.000001 0.000001 -0.000001 0.000000 0.000000 -0.000001 0.000000 0.000000 -0.000001 0.000000 0.000000 -0.000001 0.000000 0.000000 -0.000001 0.000000 0.000000 -0.000001 0.000000 0.000000 -0.000001 0.000000 0.000000 -0.000001 -0.000001 -0.000001 -0.000000 -0.000000 0.000001 -0.000000 
-1.306095 93.007904 27.932808 12.102336 -24.207317 2.430903 -0.000000 0.000001 -0.000000 -49.999396 4.225617 12.575957 21.745987 10.007933 0.482318 -13.266174 2.850604 0.533709 -0.000001 -0.000000 -0.000000 0.000000 0.000001 -0.000000 -1.875694 -8.735080 -4.444903 8.763749 9.300450 2.112480 -12.347121 2.980729 -1.963934 0.000000 0.000000 0.000000 0.000002 -0.000002 -0.000000 1.574086 4.902033 -0.030199 1.663784 -2.681647 0.148831 2.248451 -7.090241 4.060768 4.673377 2.573424 -1.765477 4.673368 2.573430 -1.765476 0.000001 0.000001 -0.000001 4.673370 2.573424 -1.765478 4.673378 2.573442 -1.765480 -0.000002 -0.000001 -0.000000 0.000001 0.000001 -0.000002 2.586988 6.304930 -9.136467 -55.944461 -32.234326 -52.929072 -0.000008 -82.607969 -0.000027 -57.894965 25.483451 40.008301 -14.557471 10.837985 12.229972 0.749545 -4.257838 13.305495 0.000001 0.000001 -0.000003 -0.809545 2.578182 -31.496434 3.095899 5.163767 -61.866966 -0.000001 -0.000000 -0.000001 -2.430861 1.729232 -41.460939 2.952346 5.084724 -60.259938 0.000001 -0.000001 -0.000004 -6.054134 -0.166581 -49.857587 3.046276 5.137015 -61.313966 0.000001 -0.000002 0.000002 -8.298311 -6.522636 -38.520163 2.848772 5.024355 -59.084422 0.000001 -0.000003 0.000002 0.000003 0.000000 -0.000003 0.000003 0.000000 -0.000003 0.000002 0.000000 -0.000002 -0.000001 0.000001 -0.000000 -0.000001 0.000000 -0.000001 -0.000001 0.000001 -0.000000 -0.000003 0.000000 -0.000001 -14.632897 3.249423 -5.146243 74.315539 140.550813 -55.651937 -0.000012 31.681945 0.000002 -47.753613 -7.654841 -31.044009 8.377137 -4.904125 11.022011 21.620194 -18.183915 -18.379197 0.000001 0.000000 0.000001 0.558925 -4.406592 25.436658 1.653052 -3.560330 49.799090 0.000000 0.000000 0.000000 10.969818 -12.875559 52.800832 6.387560 -4.324409 111.833658 0.000002 -0.000001 0.000003 3.705089 -7.151317 57.622461 5.328215 -4.608650 98.293423 0.000000 0.000000 0.000004 0.474829 -5.173026 58.987693 3.194306 -4.421896 71.674168 0.000000 0.000005 -0.000001 -0.000001 0.000000 -0.000000 -0.000002 0.000001 -0.000002 -0.000001 -0.000000 -0.000000 -0.000002 0.000001 -0.000001 -0.000003 0.000001 -0.000000 -0.000002 0.000001 -0.000001 -0.000003 0.000001 -0.000000 0.000000 -0.000002 0.000001 0.000000 -0.000002 0.000001 0.000000 -0.000002 0.000001 0.000000 -0.000002 0.000001 0.000000 -0.000002 0.000001 0.000000 -0.000002 0.000001 0.000000 -0.000002 0.000001 -0.000000 0.000001 0.000000 -0.000000 0.000001 -0.000000 
